<?xml version="1.0" encoding="UTF-8" standalone="no"?>
<!-- Created with Inkscape (http://www.inkscape.org/) -->

<svg
   xmlns:dc="http://purl.org/dc/elements/1.1/"
   xmlns:cc="http://creativecommons.org/ns#"
   xmlns:rdf="http://www.w3.org/1999/02/22-rdf-syntax-ns#"
   xmlns:svg="http://www.w3.org/2000/svg"
   xmlns="http://www.w3.org/2000/svg"
   xmlns:sodipodi="http://sodipodi.sourceforge.net/DTD/sodipodi-0.dtd"
   xmlns:inkscape="http://www.inkscape.org/namespaces/inkscape"
   id="svg2"
   version="1.1"
   inkscape:version="0.48.4 r9939"
   width="744.09447"
   height="1052.3622"
   xml:space="preserve"
   sodipodi:docname="embackground.pdf"><metadata
     id="metadata8"><rdf:RDF><cc:Work
         rdf:about=""><dc:format>image/svg+xml</dc:format><dc:type
           rdf:resource="http://purl.org/dc/dcmitype/StillImage" /><dc:title></dc:title></cc:Work></rdf:RDF></metadata><defs
     id="defs6" /><sodipodi:namedview
     pagecolor="#ffffff"
     bordercolor="#666666"
     borderopacity="1"
     objecttolerance="10"
     gridtolerance="10"
     guidetolerance="10"
     inkscape:pageopacity="0"
     inkscape:pageshadow="2"
     inkscape:window-width="1920"
     inkscape:window-height="1141"
     id="namedview4"
     showgrid="false"
     inkscape:zoom="5.0743655"
     inkscape:cx="596.37719"
     inkscape:cy="57.502634"
     inkscape:window-x="0"
     inkscape:window-y="27"
     inkscape:window-maximized="1"
     inkscape:current-layer="g10" /><g
     id="g10"
     inkscape:groupmode="layer"
     inkscape:label="embackground"
     transform="matrix(1.25,0,0,-1.25,0,1052.3622)"><g
       id="g12"><path
         d="M 596.645,768.569 C 573.637,759.628 547.98,750.62 528.93,744.64 462.938,725.097 375.238,714.675 327.578,717.444 c -47.66,2.778 -68.93,6.465 -109.629,17.957 C 177.25,746.886 125.715,780.023 87.652,778.819 49.586,777.612 22.156,759.214 -2,722.566 l 0,120.226 598.645,0 0,-74.223 z"
         style="fill:#ececec;fill-opacity:1;fill-rule:nonzero;stroke:none"
         id="path14" /><path
         d="M 596.645,768.566 C 573.637,759.624 547.98,750.62 528.93,744.636 462.938,725.093 375.238,714.671 327.578,717.444 c -47.66,2.774 -68.93,6.465 -109.629,17.954 C 177.25,746.882 125.715,780.019 87.652,778.816 49.586,777.612 22.156,759.21 -2,722.562"
         style="fill:none;stroke:#ec7900;stroke-opacity:1;stroke-width:1.6;stroke-linecap:butt;stroke-linejoin:miter;stroke-miterlimit:4;stroke-dasharray:none"
         id="path16" /><path
         d="m 51.629,754.109 c 2.637,3.175 5.652,5.398 9.336,5.835 3.683,0.442 6.496,-0.101 7.453,-2.457 0.957,-2.351 -0.356,-4.086 -0.356,-4.086 l -16.433,0.708 z m 25.656,-14.055 0,24.152 4.375,0 -0.035,-3.515 c 2.676,4.019 12.559,5.91 14.523,0.527 1.141,0.875 1.606,2.297 5.844,3.269 4.238,0.973 8.34,0.036 10.383,-5.121 l 0.113,-19.312 -4.375,0 -0.113,17.012 c -0.59,1.91 -1.66,3.468 -3.91,3.816 -2.25,0.336 -5.68,-1.234 -6.895,-5.426 l -0.062,-15.402 -4.571,-0.047 0.016,17.527 c -0.242,1.254 -1.363,2.524 -2.965,3.059 -1.601,0.539 -5.449,-0.406 -7.617,-4.668 l -0.113,-15.871 -4.598,0 z m -33.574,10.805 -12.574,0.468 2.109,3.414 12.723,-0.39 c 5.289,6.742 15.59,10.547 21.875,8.98 6.281,-1.562 6.34,-5.648 5.422,-10.172 -0.504,-1.14 -1.008,-2.277 -1.496,-3.441 -7.442,0.281 -14.954,0.625 -22.375,0.887 -1.161,-1.848 -1.649,-3.219 -0.731,-5.485 4.168,-4.246 11.797,-1.777 15.516,1.946 0,0 3.304,-0.18 5.004,-0.215 0,0 -2.133,-3.469 -5.696,-5.078 -3.562,-1.598 -8.133,-2.629 -10.383,-2.528 -7.738,0.348 -11.859,3.496 -9.394,11.614 z"
         style="fill:#797777;fill-opacity:1;fill-rule:evenodd;stroke:none"
         id="path18" /><path
         d="m 22.652,751.331 c 19.723,18.36 39.274,24.492 58.637,26.336 13.172,1.258 23.602,-0.551 37.336,-4.418 -29.469,4.813 -69.699,-0.289 -87.441,-21.918"
         style="fill:#000000;fill-opacity:1;fill-rule:evenodd;stroke:none"
         id="path20" /></g><path
       inkscape:connector-curvature="0"
       id="use3792"
       d="m -18.73312,38.141252 628.74181,0"
       style="fill:none;stroke:#ec7900;stroke-width:0.80000001;stroke-linecap:butt;stroke-linejoin:miter;stroke-miterlimit:4;stroke-opacity:1;stroke-dasharray:none" /></g></svg>